<?xml version="1.0" standalone="no"?>
<!DOCTYPE svg PUBLIC "-//W3C//DTD SVG 20010904//EN"
 "http://www.w3.org/TR/2001/REC-SVG-20010904/DTD/svg10.dtd">
<svg version="1.0" xmlns="http://www.w3.org/2000/svg"
 width="10000.000000pt" height="10000.000000pt" viewBox="0 0 10000.000000 10000.000000"
 preserveAspectRatio="xMidYMid meet">

<g transform="translate(0.000000,10000.000000) scale(0.100000,-0.100000)"
fill="#000000" stroke="none">
<path d="M54525 65929 c-138 -78 -371 -201 -520 -274 -294 -145 -393 -203
-560 -330 -241 -183 -343 -290 -1041 -1095 -856 -988 -1548 -1783 -3634 -4170
-1311 -1501 -1240 -1417 -1297 -1529 -35 -70 -42 -158 -19 -229 37 -111 233
-357 511 -642 216 -221 251 -262 294 -344 37 -69 40 -130 12 -193 -42 -91
-145 -158 -406 -263 -161 -65 -209 -89 -311 -156 -112 -73 -168 -94 -257 -94
-81 1 -124 14 -201 60 -68 41 -95 65 -562 485 -567 509 -1940 1728 -3024 2684
-520 459 -988 876 -1040 926 -162 157 -188 161 -365 50 -66 -42 -286 -159
-490 -260 -231 -114 -415 -213 -490 -262 -229 -151 -381 -298 -503 -486 l-57
-89 -9 229 c-5 155 -4 295 4 438 13 235 7 290 -37 325 -63 50 -93 43 -698
-153 -247 -80 -691 -222 -985 -315 -294 -94 -814 -259 -1155 -367 -738 -234
-1419 -454 -2017 -651 -240 -79 -638 -205 -885 -279 -839 -255 -1068 -326
-1363 -425 -759 -252 -1323 -491 -1835 -777 -240 -134 -360 -212 -421 -273
-123 -125 -139 -193 -118 -525 23 -380 62 -1098 109 -2020 54 -1055 72 -1367
86 -1455 35 -228 103 -287 301 -260 46 6 223 45 393 85 359 86 436 99 524 92
156 -12 196 -114 232 -592 14 -186 9 -208 -55 -239 -36 -18 -48 -18 -160 -8
-397 38 -948 41 -1286 8 -972 -97 -1860 -375 -2743 -860 -214 -117 -424 -246
-499 -304 -83 -65 -119 -83 -185 -89 l-55 -6 7 54 c3 30 20 137 36 239 76 486
94 711 93 1160 0 378 -12 549 -59 866 -109 734 -370 1466 -758 2124 -429 726
-1020 1407 -1692 1946 -1062 853 -2452 1450 -3995 1713 -370 64 -699 103
-1140 137 -280 21 -1193 30 -1530 15 -2549 -117 -4955 -726 -7444 -1885 -476
-222 -1274 -633 -1927 -993 -1251 -690 -2035 -1246 -2709 -1922 -239 -239
-417 -442 -455 -517 -38 -74 -39 -148 -3 -224 14 -30 81 -145 150 -255 69
-110 210 -344 313 -520 103 -176 460 -779 793 -1340 1182 -1991 1584 -2671
2018 -3410 282 -479 456 -766 486 -800 58 -63 100 -85 166 -85 61 0 86 8 242
81 69 31 215 94 325 139 110 44 293 126 407 181 179 88 215 102 270 106 52 4
72 1 105 -15 53 -27 112 -95 156 -180 19 -37 189 -418 377 -847 553 -1260
1424 -3236 3022 -6860 825 -1870 1734 -3931 2020 -4580 286 -649 556 -1262
600 -1363 129 -292 175 -339 326 -330 68 4 175 37 877 271 1701 565 2375 782
3355 1077 633 190 912 288 1310 457 554 236 1180 597 1578 911 128 101 182
202 167 312 -3 25 -51 212 -105 415 -306 1143 -1033 3956 -1024 3964 15 15
114 -99 224 -256 312 -449 558 -743 901 -1078 1197 -1166 2712 -1659 4529
-1474 503 51 899 135 1360 289 550 183 1058 429 1590 767 325 207 744 512 899
655 97 89 149 118 209 118 23 0 42 -2 42 -4 0 -2 22 -249 50 -548 57 -624 74
-828 95 -1128 20 -292 42 -362 129 -401 63 -28 147 -24 460 26 364 57 738 113
1471 220 325 47 783 115 1018 151 236 35 648 94 915 129 594 80 810 113 1102
171 720 142 1276 354 1740 662 63 42 156 97 205 122 75 38 95 53 122 93 18 27
38 68 45 90 8 32 11 449 9 1693 -3 1843 -8 1724 63 1724 19 0 57 -9 84 -19 26
-11 867 -424 1868 -919 2739 -1354 6364 -3147 6849 -3388 271 -134 515 -263
660 -349 459 -271 659 -345 902 -333 118 7 224 38 368 110 101 51 150 81 445
272 91 59 227 138 302 177 153 79 211 124 251 196 62 116 58 -55 56 2423 -3
2506 -8 2311 67 2386 50 51 95 66 284 99 455 80 894 209 1394 409 405 163 705
308 1276 619 157 85 286 154 287 153 11 -10 -217 -1428 -348 -2169 -60 -343
-52 -428 46 -495 59 -41 150 -62 520 -117 1060 -159 3807 -604 4416 -716 603
-110 834 -135 1138 -126 195 6 310 21 476 63 258 66 521 203 735 385 47 39
100 78 119 86 74 31 138 -10 200 -127 19 -36 107 -198 196 -360 90 -162 210
-389 266 -504 111 -222 156 -286 224 -317 88 -40 167 -18 357 104 73 47 201
121 283 165 319 171 510 269 512 263 3 -7 116 -880 138 -1061 8 -69 26 -239
40 -378 27 -264 40 -322 88 -385 31 -40 106 -82 183 -102 32 -8 527 -93 1099
-190 2250 -380 2968 -509 4145 -745 877 -175 1071 -202 1455 -203 142 -1 281
4 340 12 447 57 824 215 1166 488 49 39 104 74 129 82 56 16 131 92 148 147
26 89 22 123 -164 1249 -30 182 -54 353 -54 380 0 95 38 116 255 140 550 61
1152 216 1649 424 252 105 241 157 147 -691 -74 -665 -112 -984 -156 -1300
-37 -266 -33 -336 27 -404 34 -38 80 -65 143 -83 22 -7 227 -36 455 -67 587
-77 1165 -158 2070 -289 432 -63 1024 -148 1315 -189 292 -42 549 -82 571 -90
105 -37 157 -79 191 -155 14 -31 17 -95 19 -451 8 -987 11 -1163 27 -1212 35
-111 97 -181 213 -237 37 -18 302 -101 612 -192 1589 -466 2095 -630 2782
-899 556 -218 798 -277 1175 -287 236 -6 371 8 582 62 246 63 474 167 710 324
292 194 446 342 514 495 10 25 107 314 215 643 539 1651 3069 9269 4983 15003
654 1961 1194 3592 1200 3625 26 143 -28 219 -193 270 -45 14 -540 133 -1101
265 -1872 441 -3143 753 -4191 1029 -491 129 -689 172 -883 191 -426 42 -818
-57 -1137 -286 -81 -58 -244 -144 -274 -144 -37 0 -60 44 -86 166 -26 123 -44
226 -63 353 -16 106 -52 180 -120 244 -67 64 -107 86 -221 121 -47 14 -557
125 -1135 245 -2652 555 -3609 768 -4907 1092 -555 138 -687 167 -898 198
-780 115 -1423 -35 -2002 -466 -173 -128 -232 -200 -263 -318 -14 -54 -15
-135 -5 -795 5 -404 14 -1162 20 -1685 6 -522 13 -999 16 -1060 10 -198 -20
-291 -110 -335 -41 -19 -75 -23 -318 -36 -319 -16 -581 -43 -833 -85 -929
-155 -1841 -518 -2651 -1055 -128 -85 -146 -94 -188 -94 -39 0 -48 4 -56 23
-5 12 -66 382 -135 822 -69 440 -211 1336 -315 1990 -251 1578 -382 2414 -545
3477 -75 486 -145 917 -156 959 -50 186 -141 261 -337 278 -42 3 -439 3 -882
-2 -443 -4 -1550 -6 -2460 -5 -1366 3 -1663 1 -1700 -10 -63 -19 -974 -507
-1289 -690 -179 -104 -253 -138 -333 -152 -80 -14 -1650 -34 -2088 -27 -212 4
-464 12 -560 19 -274 20 -824 17 -995 -6 -361 -46 -662 -123 -970 -246 -199
-79 -477 -231 -669 -364 -50 -35 -112 -72 -138 -84 -58 -25 -133 -94 -160
-146 -39 -75 -49 -123 -98 -436 -48 -311 -220 -1331 -226 -1339 -2 -2 -47 34
-101 81 -638 553 -1286 958 -2018 1263 -695 289 -1501 472 -2423 549 -89 7
-165 16 -169 19 -15 15 103 108 199 157 57 29 438 234 848 455 1518 819 2217
1194 2970 1590 401 211 440 234 488 290 38 42 46 71 39 132 -8 69 -43 129
-327 549 -416 613 -1359 2022 -2155 3217 l-730 1096 -40 1 c-34 0 -82 -23
-290 -141z m105 -2149 c30 -21 68 -71 555 -734 169 -231 469 -638 667 -905
198 -266 369 -503 380 -525 29 -57 27 -107 -6 -151 -24 -31 -158 -100 -979
-508 -524 -259 -1575 -782 -2337 -1163 -762 -380 -1424 -708 -1472 -728 -82
-36 -87 -37 -116 -22 -48 25 -125 118 -185 223 -30 54 -74 122 -96 152 -46 61
-53 108 -26 162 9 16 82 109 163 207 81 97 372 449 647 782 633 768 895 1082
1335 1605 511 606 871 1039 1070 1285 95 118 192 235 214 259 77 82 131 100
186 61z m15180 -5123 c88 -43 81 -15 235 -1047 75 -503 228 -1527 341 -2275
112 -748 274 -1823 359 -2390 86 -566 171 -1128 190 -1249 19 -120 35 -236 35
-257 0 -74 -35 -138 -161 -294 -787 -971 -1278 -2003 -1503 -3160 -216 -1112
-115 -2215 296 -3250 86 -214 265 -578 376 -762 529 -876 1268 -1564 2162
-2013 85 -43 165 -89 177 -102 91 -97 225 -443 267 -687 38 -224 3 -325 -102
-293 -55 18 -2131 337 -3235 497 -571 83 -575 84 -614 165 -15 32 -34 123 -63
315 -23 149 -92 592 -155 985 -173 1085 -532 3428 -680 4445 -145 992 -163
1116 -166 1119 -2 2 -14 7 -26 10 -15 5 -24 2 -31 -11 -5 -10 -335 -853 -732
-1873 -397 -1020 -725 -1861 -729 -1868 -4 -7 -491 1027 -1112 2360 l-1106
2373 -35 3 c-28 2 -38 -1 -42 -15 -18 -62 -196 -1156 -535 -3288 -197 -1239
-206 -1298 -246 -1601 -61 -470 -75 -525 -145 -571 -49 -34 -101 -30 -442 32
-632 115 -1265 221 -2483 415 -308 49 -580 96 -604 105 -62 21 -107 59 -133
108 -36 70 -29 154 51 607 39 223 146 852 237 1399 95 573 172 1007 181 1025
19 36 34 52 703 744 877 907 868 898 878 935 22 78 17 83 -297 367 -281 254
-372 331 -497 420 -291 208 -336 344 -259 792 19 112 84 493 144 848 61 355
185 1088 276 1630 470 2788 737 4358 746 4388 16 49 69 97 120 109 29 7 640
10 1836 9 l1792 -1 27 -21 c47 -34 65 -68 76 -140 6 -38 30 -172 54 -299 54
-287 155 -849 279 -1550 118 -665 264 -1442 345 -1840 103 -501 249 -1145 260
-1145 9 0 306 1662 750 4200 284 1624 270 1559 343 1597 18 9 47 19 66 22 19
3 586 5 1260 3 l1226 -3 45 -22z m-26115 -923 c1019 -965 1759 -1663 2170
-2049 407 -382 405 -380 405 -445 0 -53 -27 -94 -139 -213 -58 -62 -284 -304
-501 -537 -216 -234 -462 -497 -545 -585 -447 -475 -2130 -2232 -3227 -3368
-242 -250 -323 -341 -343 -382 l-27 -54 19 -38 c23 -48 89 -88 243 -148 1154
-447 1348 -522 2815 -1103 501 -198 991 -392 1090 -431 202 -79 281 -122 365
-198 59 -54 73 -73 255 -353 715 -1098 1654 -1912 2798 -2424 597 -268 1201
-444 1941 -566 132 -22 257 -45 276 -52 112 -35 185 -100 217 -192 16 -46 18
-83 13 -401 -3 -192 -4 -887 -4 -1542 1 -656 -2 -1193 -6 -1193 -5 0 -2644
1316 -5866 2925 -3221 1609 -5861 2925 -5865 2925 -5 0 -9 -1360 -9 -3022 l0
-3022 -21 -44 c-39 -80 -30 -78 -854 -182 -785 -98 -1236 -157 -1680 -220
-372 -53 -414 -52 -462 10 -24 30 -34 114 -73 620 -23 283 -65 799 -95 1145
-42 492 -52 640 -44 675 5 24 38 94 73 154 272 475 535 1100 690 1643 309
1080 336 2240 77 3296 -229 933 -625 1670 -1289 2397 -128 140 -179 216 -206
309 -18 61 -21 97 -71 706 -20 237 -62 732 -95 1100 -170 1916 -210 2405 -230
2830 -13 258 -26 328 -71 371 -54 52 -98 47 -420 -45 -640 -182 -803 -215
-855 -173 -68 54 -81 157 -94 755 -11 492 -11 486 60 526 21 11 71 27 112 35
40 8 321 89 623 179 839 252 2761 821 3300 976 154 44 347 103 429 131 222 74
275 75 316 8 32 -53 38 -112 60 -543 47 -930 236 -4214 245 -4250 3 -11 18
-35 34 -53 l28 -32 1778 2491 1778 2490 61 -59 c34 -32 403 -383 821 -778z
m-24167 241 c1010 -55 1535 -114 2092 -236 533 -118 995 -287 1580 -580 528
-265 921 -519 1325 -855 160 -133 487 -459 616 -614 413 -495 706 -1020 909
-1630 107 -320 168 -595 212 -950 21 -166 17 -778 -5 -960 -90 -733 -299
-1390 -703 -2205 -674 -1362 -1677 -2563 -2989 -3580 -249 -193 -469 -352
-778 -560 -152 -102 -292 -204 -312 -227 -62 -68 -80 -119 -79 -223 2 -75 11
-125 57 -295 111 -412 516 -1953 912 -3470 224 -855 521 -1989 660 -2520 140
-531 257 -995 261 -1032 13 -130 -34 -210 -157 -267 -35 -17 -201 -70 -369
-120 -594 -174 -1018 -309 -1892 -602 -676 -225 -697 -231 -765 -189 -18 10
-43 36 -57 57 -14 21 -362 794 -774 1718 -1613 3615 -3054 6835 -4189 9360
-679 1508 -1153 2567 -1438 3208 -70 158 -140 305 -156 326 -35 50 -83 67
-136 51 -21 -7 -351 -169 -733 -362 -450 -226 -709 -351 -736 -355 -57 -8
-114 25 -158 91 -19 28 -195 326 -392 661 -457 780 -953 1616 -1451 2448 -217
363 -401 674 -409 693 -8 18 -14 57 -14 85 0 49 3 55 48 99 68 68 595 379
1157 682 264 143 922 471 1200 598 1490 683 3024 1191 4420 1464 828 162 1693
262 2565 295 311 12 384 12 678 -4z m34312 -959 c543 -55 1016 -163 1480 -337
414 -155 850 -377 1196 -609 319 -214 721 -553 1005 -847 154 -161 177 -230
110 -335 -16 -24 -223 -250 -461 -503 -625 -663 -1446 -1540 -2570 -2745 -541
-580 -1117 -1197 -1279 -1370 -286 -307 -441 -482 -441 -499 0 -14 243 -24
395 -17 412 20 999 150 1415 313 228 90 519 247 738 400 277 193 481 377 876
791 119 125 179 146 275 98 29 -15 171 -137 357 -307 328 -299 929 -843 1642
-1483 237 -214 432 -393 432 -398 0 -15 -425 -435 -565 -559 -979 -866 -2126
-1494 -3495 -1912 -963 -295 -1734 -429 -2545 -444 -1025 -19 -1905 168 -2815
599 -735 348 -1380 859 -1821 1444 -543 718 -858 1586 -961 2654 -18 182 -17
833 0 1000 52 497 157 935 327 1365 66 169 257 554 357 720 601 1003 1498
1801 2591 2307 810 375 1807 623 2772 688 194 13 802 4 985 -14z m26872 -452
c667 -135 1763 -355 2435 -489 672 -135 1237 -251 1256 -258 48 -20 105 -73
129 -120 11 -22 37 -124 58 -226 22 -102 84 -402 139 -666 55 -264 159 -761
230 -1105 117 -563 448 -2126 1069 -5050 l218 -1025 31 -3 c29 -3 33 0 42 35
63 236 1057 4344 1562 6453 103 430 158 642 177 680 38 76 67 94 155 98 62 3
117 -7 396 -73 670 -157 1576 -355 2679 -585 294 -61 558 -120 587 -131 58
-21 110 -72 121 -115 19 -76 1 -135 -484 -1594 -1116 -3355 -2866 -8638 -4107
-12400 -838 -2540 -876 -2653 -903 -2704 -15 -26 -42 -60 -61 -75 -32 -24 -42
-26 -125 -25 -85 0 -108 6 -336 78 -311 98 -755 229 -1515 446 -329 94 -613
179 -630 187 -85 43 -126 97 -145 190 -14 69 -35 883 -70 2683 -30 1515 -46
2160 -76 2965 -8 226 -19 910 -24 1525 -10 1200 -19 1521 -60 2015 -16 187
-61 585 -69 607 -5 13 -14 -19 -28 -99 -12 -65 -82 -451 -157 -858 -154 -842
-241 -1337 -751 -4274 -381 -2193 -373 -2154 -436 -2243 -33 -45 -110 -78
-188 -78 -36 0 -227 27 -425 60 -199 32 -588 93 -866 135 -915 138 -1442 225
-1475 243 -16 10 -39 34 -50 54 l-19 36 37 313 c67 554 114 1056 143 1509 23
364 -5 312 342 634 400 372 815 851 1115 1291 643 943 1027 1989 1156 3150 59
522 53 1081 -15 1550 -146 1014 -598 1964 -1295 2723 -222 242 -260 288 -295
357 -62 126 -66 196 -29 467 52 379 75 592 161 1543 52 573 53 607 28 660 -29
62 -71 80 -310 139 -120 30 -313 82 -429 114 -115 33 -226 63 -245 67 -98 20
-125 62 -116 175 4 42 11 265 16 496 11 529 29 665 95 731 29 29 39 33 88 33
33 0 551 -100 1269 -246z m-3897 -4064 c605 -67 1111 -216 1600 -469 1048
-542 1753 -1476 1995 -2638 147 -708 154 -1368 20 -2033 -190 -943 -690 -1862
-1477 -2715 -167 -181 -473 -479 -627 -610 -759 -649 -1612 -1073 -2511 -1249
-635 -125 -1338 -136 -1933 -30 -1574 278 -2782 1404 -3201 2984 -72 272 -94
447 -111 875 -11 282 -5 443 26 725 135 1238 679 2359 1604 3304 592 604 1120
997 1775 1317 652 319 1279 486 2075 553 90 8 668 -3 765 -14z m-31515 -626
c-13 -156 -13 -677 0 -879 14 -207 33 -407 71 -738 17 -148 29 -270 27 -273
-3 -3 -1024 386 -1416 539 l-33 13 677 733 c372 402 678 730 680 728 2 -2 0
-57 -6 -123z m-12870 -518 c548 -69 982 -189 1416 -390 590 -274 1071 -649
1471 -1148 86 -108 277 -391 352 -525 314 -556 510 -1227 571 -1953 14 -162
14 -609 0 -770 -35 -418 -116 -810 -250 -1210 -207 -622 -551 -1260 -1003
-1862 -806 -1073 -1818 -1816 -3028 -2222 -479 -161 -928 -257 -1334 -286
-165 -11 -797 2 -965 20 -572 61 -1070 209 -1555 459 -715 369 -1298 932
-1706 1646 -257 449 -441 994 -525 1549 -65 434 -72 951 -18 1371 93 730 350
1444 770 2142 710 1182 1685 2101 2783 2625 616 295 1335 497 1981 557 63 6
133 13 155 15 106 10 767 -3 885 -18z"/>
<path d="M20660 53414 c-438 -32 -876 -145 -1334 -344 -257 -112 -299 -148
-297 -253 1 -70 217 -803 641 -2172 409 -1319 679 -2200 845 -2750 70 -231
138 -443 151 -472 49 -102 116 -128 212 -79 27 14 104 67 173 118 68 52 221
164 339 248 430 307 619 457 853 678 720 680 1086 1367 1172 2199 23 221 24
670 2 833 -103 749 -499 1305 -1182 1656 -321 165 -669 273 -1030 319 -119 15
-440 26 -545 19z m482 -1214 c463 -97 895 -411 992 -720 73 -230 104 -568 75
-828 -53 -490 -281 -935 -643 -1255 -95 -83 -214 -172 -221 -165 -3 2 -34 103
-70 224 -36 120 -136 437 -222 704 -306 956 -391 1247 -500 1733 -48 213 -48
234 -4 264 36 24 108 49 189 63 74 14 296 3 404 -20z"/>
<path d="M52165 54799 c-200 -7 -218 -10 -372 -48 -391 -100 -746 -249 -1028
-435 -306 -201 -582 -483 -768 -784 -275 -443 -437 -1030 -437 -1575 0 -271
28 -480 95 -711 139 -479 449 -958 854 -1322 156 -140 232 -169 320 -125 45
24 74 56 164 182 89 127 174 226 387 454 97 105 473 523 836 930 664 746 1455
1632 1881 2107 135 150 241 278 255 305 63 129 10 216 -263 434 -428 340 -926
539 -1479 589 -124 11 -129 11 -445 -1z m455 -1044 c107 -20 211 -49 283 -78
l56 -23 -1067 -1222 -1067 -1222 -33 38 c-46 53 -147 261 -176 364 -123 432
-41 951 212 1343 280 435 841 767 1382 819 85 8 325 -3 410 -19z"/>
<path d="M75580 51469 c-699 -69 -1299 -353 -1736 -819 -312 -333 -526 -768
-600 -1216 -25 -150 -25 -447 0 -599 61 -374 186 -692 396 -1007 253 -381 594
-683 985 -873 293 -143 610 -231 949 -265 150 -16 532 -7 674 14 837 127 1513
578 1871 1247 149 278 258 641 292 966 15 146 7 469 -15 588 -23 129 -71 287
-116 382 -41 89 -123 213 -167 255 l-28 27 -1 -157 c-1 -236 -36 -389 -137
-586 -145 -284 -394 -512 -719 -658 -495 -222 -987 -216 -1448 18 -381 195
-667 514 -790 882 -150 452 -48 859 304 1207 206 204 522 399 884 546 65 26
79 35 66 42 -24 13 -547 18 -664 6z"/>
<path d="M31120 50170 c-113 -9 -203 -32 -402 -99 -462 -158 -839 -389 -1138
-697 -173 -179 -285 -335 -389 -542 -204 -407 -267 -876 -185 -1363 74 -437
270 -883 524 -1194 254 -310 580 -548 953 -694 322 -126 644 -184 1022 -184
300 0 527 28 810 100 996 253 1621 944 1825 2017 75 396 25 767 -159 1172 -51
114 -170 338 -177 332 -1 -2 -12 -68 -24 -147 -121 -832 -561 -1366 -1220
-1482 -147 -26 -443 -29 -602 -5 -549 80 -977 373 -1197 818 -248 504 -163
1031 229 1428 191 192 474 373 785 500 44 18 84 37 90 41 11 11 -610 9 -745
-1z"/>
</g>
</svg>
